<svg width="80" height="46" viewBox="0 0 80 46" fill="none" xmlns="http://www.w3.org/2000/svg">
<path d="M14.8448 22.7959C14.712 22.6619 14.5504 22.5957 14.36 22.5957C14.1696 22.5957 14.0064 22.6635 13.8736 22.7959C13.7408 22.9284 13.6752 23.0915 13.6752 23.2853C13.6752 23.479 13.7408 23.6422 13.8736 23.7746C14.0064 23.9086 14.168 23.9748 14.36 23.9748C14.552 23.9748 14.7136 23.9086 14.8448 23.7746C14.9776 23.6405 15.0432 23.4774 15.0432 23.2853C15.0432 23.0931 14.9776 22.9284 14.8448 22.7959ZM13.0944 22.7959C12.9616 22.6619 12.8 22.5957 12.608 22.5957C12.416 22.5957 12.2544 22.6635 12.1232 22.7959C11.9904 22.9284 11.9248 23.0915 11.9248 23.2853C11.9248 23.479 11.9904 23.6422 12.1232 23.7746C12.256 23.9086 12.4176 23.9748 12.608 23.9748C12.7984 23.9748 12.9616 23.9086 13.0944 23.7746C13.2256 23.6405 13.2928 23.4774 13.2928 23.2853C13.2928 23.0931 13.2256 22.9284 13.0944 22.7959Z" fill="#ffffff"/>
<path d="M14.989 16.7394V19.6252C14.989 20.3616 14.7778 20.9058 14.3602 21.2547C13.941 21.6051 13.3106 21.7795 12.4722 21.7795H6.82901C6.80981 21.7795 6.79221 21.7795 6.77461 21.7795C6.28821 21.7747 5.88341 21.7117 5.56341 21.5873C5.23061 21.4581 4.96821 21.274 4.77781 21.035C4.58581 20.796 4.45141 20.5054 4.37461 20.1646C4.29621 19.8239 4.25781 19.4428 4.25781 19.018V13.3691H4.94261C5.04181 13.3691 5.13141 13.4063 5.20981 13.4806C5.28661 13.5549 5.32501 13.6453 5.32501 13.7567V19.446C5.32501 19.8691 5.44661 20.1921 5.68661 20.4133C5.92821 20.6345 6.30901 20.7444 6.82901 20.7444H12.4306C12.8962 20.7444 13.261 20.6329 13.5266 20.4133C13.7906 20.1921 13.9234 19.8659 13.9234 19.4331V17.127C13.9234 17.0156 13.9618 16.9235 14.0386 16.8509C14.117 16.7766 14.205 16.7394 14.3058 16.7394H14.9906H14.989Z" fill="#ffffff"/>
<path d="M40.3794 20.2195V21.3516C40.3794 21.4808 40.3522 21.5841 40.2978 21.6616C40.2418 21.7407 40.1698 21.7795 40.0786 21.7795H19.2994C19.2802 21.7795 19.2626 21.7795 19.2434 21.7795C18.757 21.7747 18.3538 21.7117 18.0338 21.5873C17.6994 21.4581 17.4386 21.274 17.2466 21.035C17.0562 20.796 16.9202 20.5054 16.8434 20.1646C16.765 19.8239 16.7266 19.4428 16.7266 19.018V13.3691H17.4098C17.5106 13.3691 17.5986 13.4063 17.677 13.4806C17.7538 13.5549 17.7922 13.6453 17.7922 13.7567V19.446C17.7922 19.8691 17.9138 20.1921 18.1554 20.4133C18.397 20.6345 18.7778 20.7444 19.2978 20.7444H39.3522V20.1226C39.3522 19.8384 39.3218 19.559 39.2626 19.2877C39.2034 19.0164 39.0898 18.7774 38.9202 18.5691C38.7506 18.3624 38.509 18.1961 38.1938 18.0717C37.8802 17.9474 37.4626 17.886 36.9426 17.886H35.1506C35.0498 17.886 34.9714 17.8698 34.917 17.8376C34.8626 17.8053 34.8034 17.752 34.7394 17.6793L34.3138 16.9607L38.8978 13.3691L39.4578 13.9763C39.5042 14.0329 39.525 14.0991 39.5186 14.1766C39.5138 14.2541 39.4802 14.3219 39.4162 14.3768C39.4066 14.3865 38.3042 15.2327 36.1058 16.9187H37.3106C37.8674 16.9187 38.341 16.9946 38.733 17.1464C39.125 17.2982 39.4418 17.5162 39.6834 17.802C39.925 18.0862 40.101 18.4351 40.2114 18.8436C40.3202 19.2538 40.3746 19.7124 40.3746 20.2179L40.3794 20.2195Z" fill="#ffffff"/>
<path d="M43.1168 17.1407C43.1168 17.0309 43.1552 16.9356 43.2336 16.8581C43.3104 16.7806 43.4 16.7402 43.5008 16.7402H44.1856V22.0775C44.1856 22.5103 44.1216 22.8639 43.9936 23.1401C43.8656 23.4162 43.6832 23.6229 43.4464 23.7618C43.2096 23.9007 42.9248 23.9717 42.592 23.9766C42.2592 23.9814 41.8912 23.9281 41.4912 23.8183C41.3632 23.7715 41.256 23.723 41.1696 23.673C41.0832 23.6229 41.0576 23.5276 41.0944 23.3904L41.2448 22.7412C41.472 22.8429 41.6704 22.914 41.84 22.956C42.008 22.9979 42.1424 23.0173 42.2432 23.0173C42.5712 23.0173 42.8 22.935 42.928 22.7686C43.056 22.6023 43.12 22.3407 43.12 21.9822V17.1423L43.1168 17.1407Z" fill="#ffffff"/>
<path d="M10.4386 35.1631C10.4946 35.2616 10.501 35.331 10.4562 35.3714C10.4114 35.4118 10.3538 35.4328 10.2802 35.4328H9.41941L7.11701 32.1917H5.16661V35.4328H4.25781V27.7636C4.49941 27.649 4.75221 27.5489 5.01461 27.4633C5.27701 27.3777 5.56981 27.3018 5.89301 27.2372C6.21621 27.1726 6.55541 27.1387 6.91061 27.1387C7.88821 27.1387 8.62581 27.3567 9.12181 27.7927C9.61941 28.2287 9.86741 28.8747 9.86741 29.7322C9.86741 30.27 9.73141 30.7415 9.46101 31.1452C9.19061 31.5489 8.76341 31.8477 8.18261 32.0447C9.66901 34.1086 10.421 35.1469 10.437 35.1631H10.4386ZM7.21461 31.3342C7.40821 31.3342 7.60661 31.3035 7.80821 31.2421C8.00981 31.1808 8.19381 31.0806 8.36021 30.9418C8.52501 30.8029 8.66101 30.6236 8.76661 30.404C8.87221 30.1844 8.92341 29.9114 8.92341 29.5852C8.92341 29.259 8.87061 29.0039 8.76661 28.7956C8.66101 28.5872 8.51061 28.4241 8.31221 28.3062C8.11381 28.1884 7.87541 28.1044 7.59701 28.0559C7.31861 28.0075 7.00501 27.9833 6.65781 27.9833C6.44821 27.9833 6.25301 27.9978 6.07541 28.0269C5.89781 28.0559 5.73941 28.0898 5.60341 28.1302C5.46581 28.1706 5.32021 28.2207 5.16661 28.2772V31.3358H7.21461V31.3342Z" fill="#ffffff"/>
<path d="M17.9874 35.1634C18.0114 35.228 18.0114 35.2894 17.9874 35.3475C17.9634 35.404 17.8946 35.4331 17.781 35.4331H17.0418L16.3026 33.3531H12.9218L12.1826 35.4331H11.4066C11.293 35.4331 11.2306 35.404 11.2194 35.3475C11.2066 35.291 11.213 35.2296 11.237 35.1634L14.0242 27.7026C14.0642 27.5799 14.1042 27.483 14.1458 27.4087C14.1858 27.336 14.2466 27.273 14.3282 27.2198C14.4082 27.1665 14.5026 27.1406 14.6066 27.1406C14.7106 27.1406 14.8018 27.1665 14.8786 27.2198C14.9554 27.273 15.0178 27.336 15.0658 27.4087C15.1138 27.4814 15.1586 27.5799 15.1986 27.7026L17.9858 35.1634H17.9874ZM15.9634 32.4229L14.6066 28.5084L13.2498 32.4229H15.965H15.9634Z" fill="#ffffff"/>
<path d="M19.5762 27.2852H20.2418V35.4307H19.3218V27.5419C19.3218 27.445 19.3442 27.3772 19.389 27.3401C19.4338 27.3045 19.4962 27.2852 19.5762 27.2852Z" fill="#ffffff"/>
<path d="M24.9923 35.3464C24.9843 35.4029 24.9155 35.432 24.7875 35.432H23.9763L20.6067 31.9325C20.4931 31.8275 20.4083 31.7322 20.3475 31.645C20.2867 31.5594 20.2563 31.4464 20.2563 31.3075C20.2563 31.1783 20.2883 31.0604 20.3523 30.9587C20.4163 30.857 20.5107 30.7375 20.6307 30.5986L23.5027 27.2832H24.2179C24.3219 27.2832 24.3827 27.3123 24.4003 27.3688C24.4163 27.4253 24.3955 27.4948 24.3395 27.5755L21.2371 31.3059C23.6771 33.8671 24.9011 35.151 24.9091 35.159C24.9731 35.2236 25.0019 35.2866 24.9939 35.3431L24.9923 35.3464Z" fill="#ffffff"/>
<path d="M32.4707 35.1634C32.4947 35.228 32.4947 35.2894 32.4707 35.3475C32.4467 35.404 32.3779 35.4331 32.2643 35.4331H31.5251L30.7859 33.3531H27.4051L26.666 35.4331H25.8899C25.7763 35.4331 25.7139 35.404 25.7027 35.3475C25.6899 35.291 25.6963 35.2296 25.7203 35.1634L28.5075 27.7026C28.5475 27.5799 28.5875 27.483 28.6291 27.4087C28.6691 27.336 28.73 27.273 28.8116 27.2198C28.8916 27.1665 28.9859 27.1406 29.0899 27.1406C29.1939 27.1406 29.2851 27.1665 29.3619 27.2198C29.4387 27.273 29.5011 27.336 29.5491 27.4087C29.5971 27.4814 29.6419 27.5799 29.6819 27.7026L32.4691 35.1634H32.4707ZM30.4467 32.4229L29.0899 28.5084L27.7331 32.4229H30.4483H30.4467Z" fill="#ffffff"/>
<path d="M38.4147 27.3643C38.4515 27.4176 38.4531 27.4854 38.4211 27.5661C36.9507 29.743 35.9363 31.2433 35.3795 32.0669V35.1497C35.3795 35.2224 35.3667 35.2886 35.3427 35.3451C35.3187 35.4016 35.2499 35.4307 35.1363 35.4307H34.4691V32.0669L31.4387 27.5661C31.4067 27.4935 31.4083 27.4273 31.4451 27.3707C31.4819 27.3142 31.5363 27.2852 31.6083 27.2852H32.2995L34.9299 31.1012L37.5347 27.2852H38.2499C38.3219 27.2852 38.3779 27.311 38.4131 27.3643H38.4147Z" fill="#ffffff"/>
<path d="M44.1651 35.1634C44.1891 35.228 44.1891 35.2894 44.1651 35.3475C44.1411 35.404 44.0723 35.4331 43.9587 35.4331H43.2195L42.4803 33.3531H39.0995L38.3603 35.4331H37.5843C37.4707 35.4331 37.4083 35.404 37.3971 35.3475C37.3843 35.291 37.3907 35.2296 37.4147 35.1634L40.2019 27.7026C40.2419 27.5799 40.2819 27.483 40.3235 27.4087C40.3635 27.336 40.4243 27.273 40.5059 27.2198C40.5859 27.1665 40.6803 27.1406 40.7843 27.1406C40.8883 27.1406 40.9795 27.1665 41.0563 27.2198C41.1331 27.273 41.1955 27.336 41.2435 27.4087C41.2915 27.4814 41.3363 27.5799 41.3763 27.7026L44.1635 35.1634H44.1651ZM42.1411 32.4229L40.7843 28.5084L39.4275 32.4229H42.1427H42.1411Z" fill="#ffffff"/>
<path d="M52.1489 34.3344L52.6849 34.4798L52.8545 34.42C53.5969 33.7611 56.2129 31.0368 56.9121 30.294C58.2929 28.8228 59.7409 27.4582 61.8497 27.2822C67.5377 26.8058 70.0801 34.7753 64.7809 37.6773C61.7041 39.3616 58.2433 37.5901 56.9905 34.4604C56.9969 34.2117 57.0417 34.349 57.1185 34.4604C58.7249 36.8117 61.8129 37.7499 64.3297 36.2739C69.1249 33.4608 66.5745 27.6423 61.1153 29.1393C59.8161 29.4946 58.8513 30.344 57.9473 31.2887C57.2385 32.0284 54.6321 34.7785 53.8657 35.4422L53.8193 35.5731L54.0129 36.2142L52.1505 34.3344H52.1489Z" fill="#ffffff"/>
<path d="M57.0049 34.4434C58.4401 35.6981 58.4865 38.1076 57.3633 39.5836C57.3873 39.1152 57.4369 38.6792 57.4609 38.248C57.5681 36.9351 57.3841 35.7111 57.0049 34.4434Z" fill="#ffffff"/>
<path d="M71.9362 14.4655L71.4002 14.3202L71.2306 14.3799C70.4882 15.0388 67.8722 17.7631 67.173 18.506C65.7922 19.9771 64.3442 21.3417 62.2354 21.5177C56.5474 21.9941 54.005 14.0246 59.3042 11.1227C62.381 9.43834 65.8418 11.2099 67.0946 14.3395C67.0882 14.5882 67.0434 14.451 66.9666 14.3395C65.3602 11.9883 62.2722 11.05 59.7554 12.526C54.9602 15.3392 57.5106 21.1576 62.9698 19.6606C64.269 19.3053 65.2338 18.4559 66.1378 17.5112C66.8466 16.7716 69.453 14.0214 70.2194 13.3577L70.2658 13.2269L70.0722 12.5858L71.9346 14.4655H71.9362Z" fill="#ffffff"/>
<path d="M67.0787 14.357C65.6435 13.1022 65.5971 10.6928 66.7203 9.2168C66.6963 9.68512 66.6467 10.1211 66.6227 10.5523C66.5155 11.8652 66.6995 13.0893 67.0787 14.357Z" fill="#ffffff"/>
<path d="M52.2002 14.416L52.0562 14.957L52.1154 15.1282C52.7682 15.8775 55.4674 18.5178 56.2034 19.2236C57.661 20.6172 59.013 22.0787 59.1874 24.2071C59.6594 29.9481 51.7634 32.5141 48.8882 27.1656C47.2194 24.0602 48.9746 20.5671 52.0754 19.3027C52.3218 19.3091 52.1858 19.3544 52.0754 19.4319C49.7458 21.0532 48.8162 24.17 50.2786 26.7102C53.0658 31.55 58.8306 28.9759 57.3474 23.4659C56.9954 22.1546 56.1538 21.1808 55.2178 20.2684C54.485 19.553 51.7602 16.9223 51.1026 16.1488L50.973 16.102L50.3378 16.2974L52.2002 14.4176V14.416Z" fill="#ffffff"/>
<path d="M52.0913 19.3164C50.8481 20.765 48.4609 20.8118 46.9985 19.6781C47.4625 19.7024 47.8945 19.7524 48.3217 19.7767C49.6225 19.8848 50.8353 19.6991 52.0913 19.3164Z" fill="#ffffff"/>
<path d="M71.8849 34.3855L72.0289 33.8445L71.9697 33.6733C71.3169 32.924 68.6177 30.2836 67.8817 29.5779C66.4241 28.1843 65.0721 26.7228 64.8977 24.5944C64.4257 18.8534 72.3217 16.2873 75.1969 21.6359C76.8657 24.7413 75.1105 28.2343 72.0097 29.4988C71.7633 29.4923 71.8993 29.4471 72.0097 29.3696C74.3393 27.7482 75.2689 24.6315 73.8065 22.0913C71.0193 17.2514 65.2545 19.8256 66.7377 25.3356C67.0897 26.6469 67.9313 27.6207 68.8673 28.5331C69.6001 29.2485 72.3249 31.8791 72.9825 32.6527L73.1121 32.6995L73.7473 32.5041L71.8849 34.3838V34.3855Z" fill="#ffffff"/>
<path d="M71.9937 29.4834C73.2369 28.0348 75.6241 27.988 77.0865 29.1217C76.6225 29.0974 76.1905 29.0474 75.7633 29.0232C74.4625 28.915 73.2497 29.1007 71.9937 29.4834Z" fill="#ffffff"/>
<path d="M60.3794 23.2517V25.5465C60.3794 25.839 60.6144 26.0762 60.9042 26.0762H63.1778C63.4676 26.0762 63.7026 25.839 63.7026 25.5465V23.2517C63.7026 22.9592 63.4676 22.722 63.1778 22.722H60.9042C60.6144 22.722 60.3794 22.9592 60.3794 23.2517Z" fill="#ffffff"/>
</svg>
