<svg xmlns="http://www.w3.org/2000/svg" viewBox="46 8 32 32" fill="none">
<g fill="#033A40">
<path d="M52.1489 34.3344L52.6849 34.4798L52.8545 34.42C53.5969 33.7611 56.2129 31.0368 56.9121 30.294C58.2929 28.8228 59.7409 27.4582 61.8497 27.2822C67.5377 26.8058 70.0801 34.7753 64.7809 37.6773C61.7041 39.3616 58.2433 37.5901 56.9905 34.4604C56.9969 34.2117 57.0417 34.349 57.1185 34.4604C58.7249 36.8117 61.8129 37.7499 64.3297 36.2739C69.1249 33.4608 66.5745 27.6423 61.1153 29.1393C59.8161 29.4946 58.8513 30.344 57.9473 31.2887C57.2385 32.0284 54.6321 34.7785 53.8657 35.4422L53.8193 35.5731L54.0129 36.2142L52.1505 34.3344H52.1489Z"/>
<path d="M57.0049 34.4434C58.4401 35.6981 58.4865 38.1076 57.3633 39.5836C57.3873 39.1152 57.4369 38.6792 57.4609 38.248C57.5681 36.9351 57.3841 35.7111 57.0049 34.4434Z"/>
<path d="M71.9362 14.4655L71.4002 14.3202L71.2306 14.3799C70.4882 15.0388 67.8722 17.7631 67.173 18.506C65.7922 19.9771 64.3442 21.3417 62.2354 21.5177C56.5474 21.9941 54.005 14.0246 59.3042 11.1227C62.381 9.43834 65.8418 11.2099 67.0946 14.3395C67.0882 14.5882 67.0434 14.451 66.9666 14.3395C65.3602 11.9883 62.2722 11.05 59.7554 12.526C54.9602 15.3392 57.5106 21.1576 62.9698 19.6606C64.269 19.3053 65.2338 18.4559 66.1378 17.5112C66.8466 16.7716 69.453 14.0214 70.2194 13.3577L70.2658 13.2269L70.0722 12.5858L71.9346 14.4655H71.9362Z"/>
<path d="M67.0787 14.357C65.6435 13.1022 65.5971 10.6928 66.7203 9.2168C66.6963 9.68512 66.6467 10.1211 66.6227 10.5523C66.5155 11.8652 66.6995 13.0893 67.0787 14.357Z"/>
<path d="M52.2002 14.416L52.0562 14.957L52.1154 15.1282C52.7682 15.8775 55.4674 18.5178 56.2034 19.2236C57.661 20.6172 59.013 22.0787 59.1874 24.2071C59.6594 29.9481 51.7634 32.5141 48.8882 27.1656C47.2194 24.0602 48.9746 20.5671 52.0754 19.3027C52.3218 19.3091 52.1858 19.3544 52.0754 19.4319C49.7458 21.0532 48.8162 24.17 50.2786 26.7102C53.0658 31.55 58.8306 28.9759 57.3474 23.4659C56.9954 22.1546 56.1538 21.1808 55.2178 20.2684C54.485 19.553 51.7602 16.9223 51.1026 16.1488L50.973 16.102L50.3378 16.2974L52.2002 14.4176V14.416Z"/>
<path d="M52.0913 19.3164C50.8481 20.765 48.4609 20.8118 46.9985 19.6781C47.4625 19.7024 47.8945 19.7524 48.3217 19.7767C49.6225 19.8848 50.8353 19.6991 52.0913 19.3164Z"/>
<path d="M71.8849 34.3855L72.0289 33.8445L71.9697 33.6733C71.3169 32.924 68.6177 30.2836 67.8817 29.5779C66.4241 28.1843 65.0721 26.7228 64.8977 24.5944C64.4257 18.8534 72.3217 16.2873 75.1969 21.6359C76.8657 24.7413 75.1105 28.2343 72.0097 29.4988C71.7633 29.4923 71.8993 29.4471 72.0097 29.3696C74.3393 27.7482 75.2689 24.6315 73.8065 22.0913C71.0193 17.2514 65.2545 19.8256 66.7377 25.3356C67.0897 26.6469 67.9313 27.6207 68.8673 28.5331C69.6001 29.2485 72.3249 31.8791 72.9825 32.6527L73.1121 32.6995L73.7473 32.5041L71.8849 34.3838V34.3855Z"/>
<path d="M71.9937 29.4834C73.2369 28.0348 75.6241 27.988 77.0865 29.1217C76.6225 29.0974 76.1905 29.0474 75.7633 29.0232C74.4625 28.915 73.2497 29.1007 71.9937 29.4834Z"/>
<path d="M60.3794 23.2517V25.5465C60.3794 25.839 60.6144 26.0762 60.9042 26.0762H63.1778C63.4676 26.0762 63.7026 25.839 63.7026 25.5465V23.2517C63.7026 22.9592 63.4676 22.722 63.1778 22.722H60.9042C60.6144 22.722 60.3794 22.9592 60.3794 23.2517Z"/>
</g>
</svg>
