<svg width="797" height="1496" viewBox="0 0 797 1496" fill="none" xmlns="http://www.w3.org/2000/svg">
<path d="M202.509 709.4C188.539 706.984 177.93 706.669 173.099 706.564H170.263H167.847C163.226 706.564 152.301 706.879 137.911 709.4C114.279 712.866 82.3495 720.849 57.6665 738.599C75.5223 713.811 83.4002 681.776 86.8663 658.143C89.177 644.279 89.5973 633.67 89.5973 628.839V626.003V623.587C89.5973 618.966 89.282 608.042 86.7611 593.652C83.295 570.02 75.3121 538.089 57.5614 513.406C82.3494 531.262 114.384 539.14 137.911 542.606C151.776 545.022 162.49 545.337 167.321 545.337H170.158H170.263H172.678C177.3 545.337 188.222 545.022 202.611 542.606C226.244 539.035 258.176 531.157 282.859 513.406C265.003 538.194 257.125 570.23 253.659 593.757C251.243 607.622 250.928 618.335 250.928 623.062V626.003V628.419C250.928 633.04 251.243 643.964 253.764 658.353C257.23 681.881 265.213 713.811 282.964 738.494C258.176 720.639 226.139 712.761 202.611 709.295M263.637 625.898C294.202 572.225 339.997 539.77 339.997 539.77C318.36 515.087 305.545 490.614 305.545 490.614C305.545 490.614 280.968 477.8 256.285 456.163C256.285 456.163 223.83 501.853 170.158 532.523C116.485 501.958 84.0302 456.163 84.0302 456.163C59.3472 477.8 34.8724 490.614 34.8724 490.614C34.8724 490.614 22.0579 515.192 0.420898 539.77C0.420898 539.77 46.1109 572.225 76.7809 625.898C46.1109 679.57 0.420898 712.026 0.420898 712.026C22.0579 736.709 34.8724 761.287 34.8724 761.287C34.8724 761.287 59.4522 774.101 84.0302 795.738C84.0302 795.738 116.485 749.943 170.158 719.378C223.83 749.943 256.285 795.738 256.285 795.738C280.968 774.101 305.545 761.287 305.545 761.287C305.545 761.287 318.36 736.709 339.997 712.026C339.997 712.026 294.202 679.57 263.637 625.898Z" fill="rgba(255,255,255,0.5)"/>
<path d="M170.052 584.304C147.05 584.304 128.459 603.106 128.564 626.108C128.564 649.11 147.365 667.596 170.368 667.596C193.37 667.491 211.961 648.795 211.856 625.793C211.751 602.79 193.055 584.304 170.052 584.304Z" fill="rgba(255,255,255,0.5)"/>
<path d="M658.46 1165.56C644.491 1163.15 633.882 1162.83 629.05 1162.73H626.214H623.799C619.177 1162.73 608.253 1163.04 593.863 1165.56C570.23 1169.03 538.301 1177.01 513.618 1194.76C531.474 1169.97 539.352 1137.94 542.818 1114.31C545.129 1100.44 545.549 1089.83 545.549 1085V1082.17V1082.06V1079.65C545.549 1075.02 545.234 1064.1 542.713 1049.71C539.247 1026.08 531.264 994.147 513.513 969.464C538.301 987.215 570.335 995.198 593.863 998.664C607.727 1001.08 618.441 1001.39 623.273 1001.39H626.109H626.214H628.63C633.251 1001.39 644.176 1001.08 658.566 998.559C682.198 995.093 714.127 987.11 738.81 969.359C720.955 994.042 713.077 1026.18 709.611 1049.71C707.195 1063.57 706.88 1074.29 706.88 1079.01V1081.96V1084.37C706.88 1088.99 707.195 1099.92 709.716 1114.31C713.182 1137.94 721.165 1169.87 738.916 1194.55C714.233 1176.7 682.093 1168.82 658.566 1165.35M719.591 1082.06C750.156 1028.39 795.951 995.933 795.951 995.933C774.314 971.25 761.499 946.777 761.499 946.777C761.499 946.777 736.92 933.963 712.237 912.326C712.237 912.326 679.782 958.121 626.109 988.686C572.437 958.121 539.982 912.326 539.982 912.326C515.299 933.963 490.826 946.777 490.826 946.777C490.826 946.777 478.012 971.355 456.375 995.933C456.375 995.933 502.065 1028.39 532.735 1082.06C502.065 1135.73 456.375 1168.19 456.375 1168.19C478.012 1192.87 490.826 1217.45 490.826 1217.45C490.826 1217.45 515.404 1230.26 539.982 1251.9C539.982 1251.9 572.437 1206.11 626.109 1175.54C679.782 1206.11 712.237 1251.9 712.237 1251.9C736.92 1230.26 761.499 1217.45 761.499 1217.45C761.499 1217.45 774.314 1192.87 795.951 1168.19C795.951 1168.19 750.156 1135.73 719.591 1082.06Z" fill="rgba(255,255,255,0.5)"/>
<path d="M660.667 1105.48C665.184 1098.76 667.914 1090.67 667.914 1081.96C667.809 1058.95 649.113 1040.36 626.11 1040.47C603.108 1040.57 584.517 1059.27 584.623 1082.27C584.623 1105.27 603.423 1123.86 626.426 1123.76C640.71 1123.76 653.315 1116.51 660.667 1105.48Z" fill="rgba(255,255,255,0.5)"/>
<path d="M127.828 1179.01C140.537 1165.25 154.297 1154.32 170.367 1145.19C186.543 1154.32 200.197 1165.25 212.907 1179.01C215.532 1181.95 220.363 1187.73 222.779 1190.88C201.037 1208.42 185.807 1229.32 175.198 1252.64H165.641C154.928 1229.32 139.803 1208.42 118.061 1190.88C120.476 1187.73 125.202 1181.95 127.933 1179.01" fill="rgba(255,255,255,0.5)"/>
<path d="M212.906 986.69C200.197 1000.45 186.437 1011.37 170.367 1020.51C154.297 1011.37 140.537 1000.45 127.828 986.69C125.097 983.749 120.371 977.972 117.955 974.821C139.697 957.28 154.927 936.379 165.536 913.061H175.093C185.701 936.379 200.932 957.28 222.674 974.821C220.363 977.972 215.532 983.749 212.801 986.69" fill="rgba(255,255,255,0.5)"/>
<path d="M74.1553 1040.26C87.9148 1052.97 98.8406 1066.73 107.979 1082.8C98.8406 1098.97 87.9148 1112.63 74.1553 1125.33C71.2144 1128.07 65.4387 1132.79 62.2877 1135.21C44.747 1113.47 23.8439 1098.24 0.526367 1087.63V1078.07C23.8439 1067.36 44.747 1052.23 62.2877 1030.49C65.4387 1032.8 71.2144 1037.63 74.1553 1040.36" fill="rgba(255,255,255,0.5)"/>
<path d="M266.473 1125.33C252.713 1112.63 241.79 1098.87 232.652 1082.8C241.79 1066.73 252.713 1052.97 266.473 1040.26C269.413 1037.53 275.192 1032.8 278.343 1030.38C295.883 1052.13 316.784 1067.25 340.101 1077.96V1087.52C316.784 1098.13 295.883 1113.36 278.343 1135.1C275.192 1132.79 269.413 1127.96 266.473 1125.23" fill="rgba(255,255,255,0.5)"/>
<path d="M597.435 1446.11C606.048 1436.76 615.291 1429.41 626.214 1423.21C637.138 1429.41 646.381 1436.76 654.993 1446.11C656.779 1448.1 660.036 1451.99 661.612 1454.2C646.907 1466.07 636.613 1480.14 629.471 1496H622.957C615.71 1480.24 605.419 1466.17 590.714 1454.2C592.289 1452.1 595.544 1448.1 597.435 1446.11Z" fill="rgba(255,255,255,0.5)"/>
<path d="M654.993 1316.08C646.381 1325.42 637.138 1332.78 626.214 1338.97C615.291 1332.78 606.048 1325.42 597.435 1316.08C595.649 1314.08 592.394 1310.19 590.714 1307.99C605.419 1296.12 615.71 1282.05 622.957 1266.19H629.471C636.718 1281.94 647.012 1296.02 661.612 1307.99C660.036 1310.09 656.779 1314.08 654.993 1316.08Z" fill="rgba(255,255,255,0.5)"/>
<path d="M561.2 1352.31C570.548 1360.93 577.899 1370.17 584.096 1381.09C577.899 1392.02 570.548 1401.26 561.2 1409.87C559.204 1411.66 555.318 1414.91 553.112 1416.49C541.243 1401.78 527.169 1391.49 511.309 1384.35V1377.84C527.064 1370.59 541.138 1360.3 553.112 1345.7C555.213 1347.27 559.204 1350.53 561.2 1352.31Z" fill="rgba(255,255,255,0.5)"/>
<path d="M691.231 1409.87C681.883 1401.26 674.531 1392.02 668.334 1381.09C674.531 1370.17 681.883 1360.93 691.231 1352.31C693.226 1350.53 697.113 1347.27 699.319 1345.7C711.187 1360.4 725.262 1370.69 741.122 1377.84V1384.35C725.367 1391.6 711.292 1401.89 699.319 1416.49C697.218 1414.91 693.226 1411.66 691.231 1409.87Z" fill="rgba(255,255,255,0.5)"/>
<path d="M658.46 253.237C644.491 250.821 633.882 250.506 629.05 250.506H626.214H623.799C619.177 250.506 608.253 250.821 593.863 253.342C570.23 256.913 538.301 264.791 513.618 282.542C531.474 257.754 539.352 225.718 542.818 202.086C545.129 188.221 545.549 177.613 545.549 172.781V169.945V167.529C545.549 162.908 545.234 151.984 542.713 137.595C539.247 113.962 531.264 82.0316 513.513 57.3486C538.301 75.2044 570.335 83.0819 593.863 86.5481C607.727 88.9638 618.441 89.2789 623.273 89.384H626.109H626.214H628.63C633.251 89.384 644.176 89.0689 658.566 86.5481C682.198 83.0819 714.127 75.0994 738.81 57.3486C720.955 82.1366 713.077 114.172 709.611 137.805C707.195 151.669 706.88 162.278 706.88 167.109V169.945V172.361C706.88 176.982 707.195 187.906 709.716 202.296C713.182 225.823 721.165 257.754 738.916 282.437C714.233 264.581 682.093 256.703 658.566 253.237M719.591 169.735C750.156 116.063 795.951 83.6071 795.951 83.6071C774.314 58.9241 761.499 34.4512 761.499 34.4512C761.499 34.4512 736.92 21.637 712.237 0C712.237 0 679.782 45.6898 626.109 76.3598C572.437 45.7948 539.982 0 539.982 0C515.299 21.637 490.826 34.4512 490.826 34.4512C490.826 34.4512 478.012 59.0291 456.375 83.6071C456.375 83.6071 502.065 116.063 532.735 169.735C502.065 223.407 456.375 255.863 456.375 255.863C478.012 280.546 490.826 305.019 490.826 305.019C490.826 305.019 515.404 317.833 539.982 339.47C539.982 339.47 572.437 293.675 626.109 263.11C679.782 293.675 712.237 339.47 712.237 339.47C736.92 317.833 761.499 305.019 761.499 305.019C761.499 305.019 774.314 280.441 795.951 255.863C795.951 255.863 750.156 223.407 719.591 169.735Z" fill="rgba(255,255,255,0.5)"/>
<path d="M626.005 128.142C603.003 128.247 584.412 146.943 584.517 169.945C584.517 192.948 603.318 211.434 626.32 211.434C649.323 211.434 667.913 192.632 667.808 169.63C667.703 146.628 649.007 128.142 626.005 128.142Z" fill="rgba(255,255,255,0.5)"/>
<path d="M127.828 266.681C140.537 252.922 154.297 241.998 170.367 232.861C186.543 241.998 200.197 252.922 212.907 266.681C215.532 269.622 220.363 275.399 222.779 278.55C201.037 296.091 185.807 316.993 175.198 340.31H165.641C154.928 316.993 139.803 296.091 118.061 278.55C120.476 275.399 125.202 269.622 127.933 266.681" fill="rgba(255,255,255,0.5)"/>
<path d="M212.906 74.3641C200.197 88.1236 186.437 99.0471 170.367 108.185C154.297 99.0471 140.537 88.1236 127.828 74.3641C125.097 71.4231 120.371 65.6463 117.955 62.4952C139.697 44.9546 154.927 24.0528 165.536 0.735229H175.093C185.701 24.0528 200.932 44.9546 222.674 62.4952C220.363 65.6463 215.532 71.4231 212.801 74.3641" fill="rgba(255,255,255,0.5)"/>
<path d="M74.1553 127.931C87.9148 140.641 98.8406 154.4 107.979 170.47C98.8406 186.54 87.9148 200.3 74.1553 213.009C71.2144 215.74 65.4387 220.466 62.2877 222.882C44.747 201.14 23.8439 186.015 0.526367 175.302V165.744C23.8439 155.135 44.747 139.905 62.2877 118.163C65.4387 120.474 71.2144 125.306 74.1553 128.036" fill="rgba(255,255,255,0.5)"/>
<path d="M266.473 213.114C252.713 200.405 241.79 186.645 232.652 170.575C241.79 154.4 252.713 140.746 266.473 128.036C269.413 125.411 275.192 120.579 278.343 118.163C295.883 139.905 316.784 155.135 340.101 165.744V175.302C316.784 186.015 295.883 201.14 278.343 222.882C275.192 220.571 269.413 215.74 266.473 213.009" fill="rgba(255,255,255,0.5)"/>
<path d="M637.349 459.734L626.846 455.743L616.343 459.734L582.207 472.863V487.253V493.345L601.429 512.776L626.846 537.984L652.263 512.776L671.485 493.345V487.253V472.863L637.349 459.734Z" fill="rgba(255,255,255,0.5)"/>
<path d="M616.342 792.167L626.846 796.158L637.349 792.167L671.485 779.037V764.543V758.451L652.263 739.125L626.846 713.916L601.428 739.125L582.206 758.451L582.101 764.543L582.206 779.037L616.342 792.167Z" fill="rgba(255,255,255,0.5)"/>
<path d="M793.116 636.401L797.001 625.898L793.116 615.394L779.881 581.363L765.491 581.258H759.398L740.073 600.48L714.758 625.898L740.073 651.421L759.398 670.537L765.491 670.642L779.881 670.537L793.116 636.401Z" fill="rgba(255,255,255,0.5)"/>
<path d="M460.576 615.394L456.691 625.898L460.576 636.401L473.706 670.537L488.202 670.642L494.292 670.537L513.619 651.421L538.826 625.898L513.619 600.48L494.292 581.258H488.202L473.706 581.363L460.576 615.394Z" fill="rgba(255,255,255,0.5)"/>
<path d="M751.836 515.822L747.215 505.634L736.922 500.907L703.522 486.098L693.228 496.286L689.026 500.592L688.92 527.901L689.026 563.718L724.844 563.928L752.151 563.823L756.459 559.516L766.647 549.223L751.836 515.822Z" fill="rgba(255,255,255,0.5)"/>
<path d="M501.856 736.079L506.477 746.267L516.665 750.888L550.17 765.698L560.358 755.51L564.666 751.204L564.771 724L564.666 688.078L528.848 687.973L501.54 688.078L497.232 692.384L487.044 702.573L501.856 736.079Z" fill="rgba(255,255,255,0.5)"/>
<path d="M736.922 750.888L747.215 746.267L751.836 736.079L766.647 702.573L756.459 692.384L752.151 688.078L724.844 687.973L689.026 688.078L688.92 724V751.204L693.228 755.51L703.522 765.698L736.922 750.888Z" fill="rgba(255,255,255,0.5)"/>
<path d="M516.77 500.907L506.477 505.529L501.856 515.822L487.044 549.223L497.232 559.516L501.54 563.823L528.848 563.928L564.666 563.718L564.771 527.901L564.666 500.592L560.358 496.391L550.17 486.098L516.77 500.907Z" fill="rgba(255,255,255,0.5)"/>
<path d="M597.33 596.699L555.842 596.909L585.357 626.108L556.053 655.623L597.54 655.413L597.751 696.901L626.951 667.491L656.466 696.691L656.255 655.202L697.849 654.992L668.333 625.793L697.533 596.278L656.045 596.383L655.94 554.895L626.635 584.41L597.225 555.21L597.33 596.699Z" fill="rgba(255,255,255,0.5)"/>
</svg>
